# xmcd
#
# Track frame offsets:
#	150
#	20671
#	34729
#	48277
#	62506
#	77823
#	92069
#	111278
#	129533
#	150392
#	166788
#	179490
#	191724
#	207194
#	222794
#	237144
#	254414
#
# Disc length: 3607 seconds
#
# Revision: 1
# Processed by: cddbd v1.5.2PL0 Copyright (c) Steve Scherf et al.
# Submitted via: audiograbber 1.83.01
#
DISCID=e20e1511
DTITLE=Various Artist - Winners 2018 [Disc 2]
DYEAR=2018
DGENRE=Country
TTITLE0=Travis Collins and Amber Lawrence - Our Backyard
TTITLE1=Kasey Chambers With Paul Kelly - Hey
TTITLE2=Adam Brand - Get On Your Feet
TTITLE3=Lee Kernaghan and James Blundell - Back In 92
TTITLE4=Drew McAlister - Coming Your Way
TTITLE5=Casey Barnes - The Way We Ride
TTITLE6=Aleyce Simmonds - Some Things Never Change
TTITLE7=Brad Butcher - From The Bottom Of A Well
TTITLE8=Ashleigh Dallas - Lighthouse
TTITLE9=Matt Cornell - My Soundtrack
TTITLE10=Tom Curtain Feat. Luke O'Shea - Never Never Land
TTITLE11=Michael Fix - Pick Me!
TTITLE12=Tania Kernaghan - All Australian Girl
TTITLE13=Ian Quinn - We Still Sing Three Rivers Hotel
TTITLE14=Darren Coggan - The Wide Horizon
TTITLE15=Dianne Lindsay - Uncle Harry
TTITLE16=Graham Rodger - Plains Of Nappa Merrie
EXTD=CMAA Golden Guitars Awards Australia
EXTT0=
EXTT1=
EXTT2=
EXTT3=
EXTT4=
EXTT5=
EXTT6=
EXTT7=
EXTT8=
EXTT9=
EXTT10=
EXTT11=
EXTT12=
EXTT13=
EXTT14=
EXTT15=
EXTT16=
PLAYORDER=
